<svg width="25" height="26" viewBox="0 0 25 26" fill="none" xmlns="http://www.w3.org/2000/svg">
<path fill-rule="evenodd" clip-rule="evenodd" d="M22.9686 10.9215L12.9166 1.06909C12.5258 0.685994 11.9002 0.685994 11.5094 1.06909L1.45743 10.9215C1.26454 11.1105 1.15585 11.3692 1.15585 11.6393V23.782L1.16394 23.8723C1.2065 24.1068 1.41172 24.2846 1.65845 24.2846L9.70001 24.2843C9.97758 24.2842 10.2026 24.0592 10.2026 23.7816V18.2534L10.2077 18.0762C10.2994 16.4932 10.607 15.2378 12.213 15.2378L12.3902 15.2429C13.8559 15.3279 14.179 16.4596 14.2188 17.9017L14.2234 18.2534V23.7816C14.2234 24.0592 14.4484 24.2842 14.726 24.2843L22.7675 24.2846L22.8579 24.2765C23.0924 24.2339 23.2701 24.0287 23.2701 23.782V11.6393C23.2701 11.3692 23.1614 11.1105 22.9686 10.9215ZM2.66363 11.8505L12.213 2.49077L21.7623 11.8505V22.7768L15.7312 22.7765V18.2535L15.7265 17.8822C15.6592 15.4395 14.7685 13.8705 12.4774 13.7377L12.2565 13.7307C9.75171 13.7301 8.85751 15.3128 8.70244 17.989L8.69543 18.2099L8.69491 22.7765L2.66363 22.7768V11.8505Z" fill="#292D32"/>
<path d="M12.9166 1.06909L12.3916 1.60471L12.3916 1.60471L12.9166 1.06909ZM22.9686 10.9215L22.4436 11.4571L22.4436 11.4571L22.9686 10.9215ZM11.5094 1.06909L10.9844 0.533471L10.9844 0.533471L11.5094 1.06909ZM1.45743 10.9215L0.932445 10.3858L0.932444 10.3858L1.45743 10.9215ZM1.15585 23.782H0.405853V23.8154L0.408835 23.8488L1.15585 23.782ZM1.16394 23.8723L0.416917 23.9392L0.419938 23.9729L0.425997 24.0063L1.16394 23.8723ZM1.65845 24.2846L1.65845 25.0346L1.65848 25.0346L1.65845 24.2846ZM9.70001 24.2843L9.70004 25.0343L9.70009 25.0343L9.70001 24.2843ZM10.2026 23.7816L10.9526 23.7817V23.7816H10.2026ZM10.2026 18.2534L9.45292 18.2317L9.45261 18.2426V18.2534H10.2026ZM10.2077 18.0762L9.45898 18.0328L9.45835 18.0437L9.45804 18.0546L10.2077 18.0762ZM12.213 15.2378L12.2347 14.4881L12.2238 14.4878H12.213V15.2378ZM12.3902 15.2429L12.4336 14.4942L12.4227 14.4936L12.4118 14.4933L12.3902 15.2429ZM14.2188 17.9017L14.9688 17.892L14.9685 17.881L14.2188 17.9017ZM14.2234 18.2534H14.9734L14.9733 18.2437L14.2234 18.2534ZM14.2234 23.7816L13.4734 23.7816L13.4734 23.7817L14.2234 23.7816ZM14.726 24.2843L14.7259 25.0343L14.726 25.0343L14.726 24.2843ZM22.7675 24.2846L22.7675 25.0346L22.801 25.0346L22.8343 25.0316L22.7675 24.2846ZM22.8579 24.2765L22.9247 25.0235L22.9585 25.0205L22.9918 25.0144L22.8579 24.2765ZM12.213 2.49077L12.738 1.95515L12.213 1.44059L11.688 1.95515L12.213 2.49077ZM2.66363 11.8505L2.13865 11.3149L1.91363 11.5354V11.8505H2.66363ZM21.7623 11.8505H22.5123V11.5354L22.2873 11.3149L21.7623 11.8505ZM21.7623 22.7768L21.7623 23.5268L22.5123 23.5268V22.7768H21.7623ZM15.7312 22.7765H14.9812V23.5265L15.7311 23.5265L15.7312 22.7765ZM15.7312 18.2535L16.4812 18.2535L16.4811 18.244L15.7312 18.2535ZM15.7265 17.8822L16.4765 17.8728L16.4762 17.8616L15.7265 17.8822ZM12.4774 13.7377L12.5208 12.989L12.511 12.9884L12.5012 12.9881L12.4774 13.7377ZM12.2565 13.7307L12.2803 12.9811L12.2685 12.9807L12.2567 12.9807L12.2565 13.7307ZM8.70244 17.989L7.9537 17.9457L7.95313 17.9554L7.95282 17.9652L8.70244 17.989ZM8.69543 18.2099L7.94581 18.1861L7.94543 18.198L7.94543 18.2098L8.69543 18.2099ZM8.69491 22.7765L8.69494 23.5265L9.44483 23.5265L9.44491 22.7766L8.69491 22.7765ZM2.66363 22.7768H1.91363V23.5268L2.66366 23.5268L2.66363 22.7768ZM12.3916 1.60471L22.4436 11.4571L23.4935 10.3858L13.4416 0.533471L12.3916 1.60471ZM12.0344 1.60471C12.1336 1.50745 12.2924 1.50745 12.3916 1.60471L13.4416 0.533471C12.7591 -0.135466 11.6669 -0.135465 10.9844 0.533471L12.0344 1.60471ZM1.98242 11.4571L12.0344 1.60471L10.9844 0.533471L0.932445 10.3858L1.98242 11.4571ZM1.90585 11.6393C1.90585 11.5708 1.93345 11.5051 1.98242 11.4571L0.932444 10.3858C0.59564 10.7159 0.405853 11.1677 0.405853 11.6393H1.90585ZM1.90585 23.782V11.6393H0.405853V23.782H1.90585ZM1.91095 23.8055L1.90287 23.7152L0.408835 23.8488L0.416917 23.9392L1.91095 23.8055ZM1.65845 23.5346C1.78061 23.5346 1.88082 23.6224 1.90187 23.7384L0.425997 24.0063C0.532178 24.5912 1.04282 25.0346 1.65845 25.0346V23.5346ZM9.69998 23.5343L1.65842 23.5346L1.65848 25.0346L9.70004 25.0343L9.69998 23.5343ZM9.45261 23.7816C9.45262 23.645 9.56333 23.5343 9.69993 23.5343L9.70009 25.0343C10.3918 25.0342 10.9526 24.4734 10.9526 23.7817L9.45261 23.7816ZM9.45261 18.2534V23.7816H10.9526V18.2534H9.45261ZM9.45804 18.0546L9.45292 18.2317L10.9523 18.2751L10.9574 18.0979L9.45804 18.0546ZM12.213 14.4878C11.7134 14.4878 11.2614 14.5859 10.8705 14.8033C10.4761 15.0226 10.1914 15.3372 9.98952 15.6945C9.6068 16.3719 9.50492 17.24 9.45898 18.0328L10.9565 18.1196C11.0023 17.3295 11.1 16.7783 11.2955 16.4323C11.3827 16.2779 11.4817 16.1797 11.5996 16.1142C11.721 16.0467 11.9096 15.9878 12.213 15.9878V14.4878ZM12.4118 14.4933L12.2347 14.4881L12.1913 15.9875L12.3685 15.9926L12.4118 14.4933ZM14.9685 17.881C14.9481 17.1392 14.8568 16.3367 14.4915 15.6932C14.0854 14.9778 13.3963 14.55 12.4336 14.4942L12.3468 15.9917C12.8498 16.0208 13.0551 16.2014 13.187 16.4336C13.3596 16.7378 13.4498 17.2222 13.4691 17.9224L14.9685 17.881ZM14.9733 18.2437L14.9688 17.892L13.4689 17.9114L13.4734 18.2631L14.9733 18.2437ZM14.9734 23.7816V18.2534H13.4734V23.7816H14.9734ZM14.7261 23.5343C14.8627 23.5343 14.9734 23.645 14.9734 23.7816L13.4734 23.7817C13.4734 24.4734 14.0342 25.0342 14.7259 25.0343L14.7261 23.5343ZM22.7676 23.5346L14.726 23.5343L14.726 25.0343L22.7675 25.0346L22.7676 23.5346ZM22.7911 23.5295L22.7008 23.5375L22.8343 25.0316L22.9247 25.0235L22.7911 23.5295ZM22.5201 23.782C22.5201 23.6598 22.608 23.5596 22.724 23.5385L22.9918 25.0144C23.5767 24.9083 24.0201 24.3977 24.0201 23.782H22.5201ZM22.5201 11.6393V23.782H24.0201V11.6393H22.5201ZM22.4436 11.4571C22.4925 11.5051 22.5201 11.5708 22.5201 11.6393H24.0201C24.0201 11.1677 23.8304 10.7159 23.4935 10.3858L22.4436 11.4571ZM11.688 1.95515L2.13865 11.3149L3.18862 12.3861L12.738 3.02639L11.688 1.95515ZM22.2873 11.3149L12.738 1.95515L11.688 3.02639L21.2373 12.3861L22.2873 11.3149ZM22.5123 22.7768V11.8505H21.0123V22.7768H22.5123ZM15.7311 23.5265L21.7623 23.5268L21.7624 22.0268L15.7312 22.0265L15.7311 23.5265ZM14.9812 18.2535V22.7765H16.4812V18.2535H14.9812ZM14.9765 17.8917L14.9812 18.2629L16.4811 18.244L16.4764 17.8728L14.9765 17.8917ZM12.434 14.4865C13.3961 14.5422 13.9657 14.883 14.3285 15.3838C14.7185 15.9221 14.945 16.7489 14.9768 17.9029L16.4762 17.8616C16.4407 16.5728 16.1881 15.3938 15.5432 14.5037C14.8711 13.5761 13.8498 13.066 12.5208 12.989L12.434 14.4865ZM12.2327 14.4803L12.4536 14.4873L12.5012 12.9881L12.2803 12.9811L12.2327 14.4803ZM9.45119 18.0324C9.52594 16.7423 9.77581 15.8609 10.195 15.3105C10.5766 14.8094 11.1786 14.4804 12.2563 14.4807L12.2567 12.9807C10.8296 12.9803 9.73212 13.4425 9.00165 14.4017C8.30877 15.3115 8.03401 16.5596 7.9537 17.9457L9.45119 18.0324ZM9.44505 18.2337L9.45207 18.0129L7.95282 17.9652L7.94581 18.1861L9.44505 18.2337ZM9.44491 22.7766L9.44543 18.21L7.94543 18.2098L7.94491 22.7765L9.44491 22.7766ZM2.66366 23.5268L8.69494 23.5265L8.69489 22.0265L2.6636 22.0268L2.66366 23.5268ZM1.91363 11.8505V22.7768H3.41363V11.8505H1.91363Z" fill="black"/>
</svg>
