<svg width="60" height="60" viewBox="0 0 60 60" fill="none" xmlns="http://www.w3.org/2000/svg">
<circle cx="30" cy="30" r="29" fill="white" stroke="black" stroke-width="2"/>
<path d="M38.1378 22.1241V22.7019H38.7126V22.1241H38.1378ZM26.4407 22.1241V21.5464H25.866V22.1241H26.4407ZM26.4407 27.4117H25.866V28.9493L26.8733 27.7921L26.4407 27.4117ZM28.5742 26.0436L28.7647 26.5887L28.7688 26.5872L28.7728 26.5857L28.5742 26.0436ZM35.9676 26.7091L35.6488 27.1898L35.6523 27.1922L35.6558 27.1945L35.9676 26.7091ZM37.0343 40.9449L37.4469 41.3472L37.4498 41.3441L37.0343 40.9449ZM25.1901 42.3869L24.9365 42.9055L24.9437 42.9089L25.1901 42.3869ZM20.5922 35.0657V34.488H20L20.0176 35.0829L20.5922 35.0657ZM26.735 35.0657L27.3036 34.9816L27.2314 34.488H26.735V35.0657ZM27.7281 37.1364L27.3217 37.5449L27.3263 37.5494L27.3309 37.5538L27.7281 37.1364ZM32.4732 36.8775L32.0229 36.5185L32.019 36.5234L32.0153 36.5283L32.4732 36.8775ZM27.9488 31.0353L28.2574 31.5228L28.2651 31.5179L28.2726 31.5127L27.9488 31.0353ZM26.8453 32.4034V32.9812H27.2539L27.3882 32.5932L26.8453 32.4034ZM20.7393 32.4034H20.1645V32.9812H20.7393V32.4034ZM20.7393 16.5777V16H20.1645V16.5777H20.7393ZM38.1378 16.5777H38.7126V16H38.1378V16.5777ZM38.1378 21.5464H26.4407V22.7019H38.1378V21.5464ZM25.866 22.1241V27.4117H27.0155V22.1241H25.866ZM26.8733 27.7921C27.3096 27.2908 27.9295 26.8836 28.7647 26.5887L28.3836 25.4985C27.4042 25.8444 26.6018 26.3493 26.0082 27.0312L26.8733 27.7921ZM28.7728 26.5857C29.6358 26.2661 30.5733 26.1037 31.5904 26.1037V24.9482C30.4495 24.9482 29.3762 25.1308 28.3755 25.5015L28.7728 26.5857ZM31.5904 26.1037C33.2444 26.1037 34.5859 26.4776 35.6488 27.1898L36.2864 26.2284C34.9952 25.3631 33.4186 24.9482 31.5904 24.9482V26.1037ZM35.6558 27.1945C36.7365 27.8961 37.5326 28.842 38.052 30.0451L39.1065 29.5851C38.4979 28.1752 37.5529 27.0506 36.2794 26.2238L35.6558 27.1945ZM38.052 30.0451C38.5815 31.2716 38.8505 32.6342 38.8505 34.1413H40C40 32.4931 39.705 30.9717 39.1065 29.5851L38.052 30.0451ZM38.8505 34.1413C38.8505 36.8886 38.088 39.0007 36.6189 40.5456L37.4498 41.3441C39.1686 39.5365 40 37.113 40 34.1413H38.8505ZM36.6218 40.5426C35.163 42.0541 33.0845 42.8445 30.303 42.8445V44C33.3086 44 35.7178 43.1388 37.4469 41.3472L36.6218 40.5426ZM30.303 42.8445C28.4077 42.8445 26.791 42.5111 25.4365 41.865L24.9437 42.9089C26.4828 43.6431 28.2748 44 30.303 44V42.8445ZM25.4436 41.8685C24.0835 41.1964 23.0524 40.2798 22.3297 39.1218L21.3559 39.7359C22.2026 41.0922 23.403 42.1478 24.9365 42.9055L25.4436 41.8685ZM22.3297 39.1218C21.6052 37.9613 21.213 36.6093 21.1667 35.0485L20.0176 35.0829C20.0694 36.8253 20.5109 38.3821 21.3559 39.7359L22.3297 39.1218ZM20.5922 35.6434H26.735V34.488H20.5922V35.6434ZM26.1663 35.1498C26.305 36.0972 26.6857 36.9055 27.3217 37.5449L28.1345 36.7278C27.6916 36.2826 27.4102 35.7104 27.3036 34.9816L26.1663 35.1498ZM27.3309 37.5538C28.0248 38.2211 28.9396 38.5276 30.0087 38.5276V37.3721C29.1651 37.3721 28.5594 37.1362 28.1254 36.7189L27.3309 37.5538ZM30.0087 38.5276C31.2448 38.5276 32.2573 38.1196 32.9311 37.2267L32.0153 36.5283C31.6102 37.0652 30.9796 37.3721 30.0087 37.3721V38.5276ZM32.9235 37.2365C33.5893 36.3926 33.894 35.3049 33.894 34.0304H32.7445C32.7445 35.1223 32.4851 35.9327 32.0229 36.5185L32.9235 37.2365ZM33.894 34.0304C33.894 32.7975 33.5723 31.7603 32.851 31.005L32.0218 31.8052C32.4776 32.2824 32.7445 32.9954 32.7445 34.0304H33.894ZM32.851 31.005C32.1292 30.2491 31.1427 29.9029 29.9719 29.9029V31.0584C30.91 31.0584 31.5666 31.3286 32.0218 31.8052L32.851 31.005ZM29.9719 29.9029C29.075 29.9029 28.2806 30.1086 27.6251 30.558L28.2726 31.5127C28.696 31.2225 29.2503 31.0584 29.9719 31.0584V29.9029ZM27.6403 30.5479C26.9999 30.9576 26.5443 31.5147 26.3025 32.2136L27.3882 32.5932C27.5387 32.1582 27.8188 31.8033 28.2574 31.5228L27.6403 30.5479ZM26.8453 31.8257H20.7393V32.9812H26.8453V31.8257ZM21.314 32.4034V16.5777H20.1645V32.4034H21.314ZM20.7393 17.1555H38.1378V16H20.7393V17.1555ZM37.5631 16.5777V22.1241H38.7126V16.5777H37.5631Z" fill="black"/>
</svg>
