<svg width="60" height="60" viewBox="0 0 60 60" fill="none" xmlns="http://www.w3.org/2000/svg">
<circle cx="30" cy="30" r="29" fill="white" stroke="black" stroke-width="2"/>
<path fill-rule="evenodd" clip-rule="evenodd" d="M26.6077 43.2156L26.6042 43.2142C25.312 42.6803 24.1684 41.8542 23.1732 40.7563L23.1687 40.7513L23.1641 40.7461C22.1837 39.6318 21.4199 38.2364 20.8537 36.5879L20.8522 36.5834C20.2758 34.8767 20 32.8676 20 30.5758C20 28.1514 20.2893 26.0135 20.8898 24.1791L20.8917 24.173L20.8938 24.167C21.5115 22.3656 22.3251 20.8429 23.353 19.6255L23.3572 19.6205L23.3613 19.6157C24.4077 18.4109 25.617 17.502 26.9905 16.9117C28.3653 16.3061 29.7933 16 31.2672 16C33.0659 16 34.6733 16.3237 36.0599 17.0064C37.3723 17.6267 38.4845 18.3868 39.3767 19.2969L39.9709 19.9029L35.6381 24.7903L34.937 24.0575C34.5734 23.6775 34.082 23.3286 33.4391 23.0231L33.4267 23.0172L33.4145 23.0109C32.8108 22.7019 32.2189 22.5579 31.6293 22.5579C31.0546 22.5579 30.524 22.6662 30.0282 22.8789C29.5862 23.0686 29.1579 23.4042 28.7533 23.9358C28.3834 24.4307 28.0488 25.1285 27.774 26.0656C27.6701 26.4197 27.5813 26.81 27.5085 27.2374C27.7971 27.0476 28.0935 26.8808 28.3981 26.7381C28.9029 26.4761 29.4183 26.28 29.9434 26.1556C30.4611 26.0074 30.9708 25.9269 31.4684 25.9269C32.6574 25.9269 33.7679 26.0986 34.7905 26.4543C35.8435 26.8112 36.7635 27.3522 37.5356 28.082C38.3475 28.8237 38.9575 29.7535 39.3767 30.8471C39.8008 31.9535 40 33.2196 40 34.6259C40 36.0537 39.7538 37.3597 39.2387 38.526C38.7381 39.6598 38.0552 40.6459 37.188 41.4739C36.3413 42.3079 35.3329 42.9435 34.1751 43.383L34.169 43.3853L34.1628 43.3876C33.0347 43.7978 31.8392 44 30.5833 44C29.225 44 27.899 43.737 26.6112 43.2171L26.6077 43.2156ZM36.8993 28.7492C36.2288 28.1139 35.4242 27.6374 34.4855 27.3197C33.5737 27.0021 32.568 26.8432 31.4684 26.8432C31.0661 26.8432 30.637 26.9094 30.181 27.0418C29.7251 27.1477 29.2692 27.3197 28.8132 27.558C28.3573 27.7698 27.9148 28.0477 27.4857 28.3918C27.4399 28.4257 27.3948 28.4602 27.3503 28.4952C26.9771 28.7891 26.6468 29.1253 26.3593 29.5037C26.3783 28.9868 26.4126 28.4984 26.462 28.0383C26.5519 27.2022 26.6919 26.4597 26.8823 25.8108C27.1773 24.8049 27.5527 23.9975 28.0087 23.3887C28.4914 22.7534 29.0412 22.3033 29.6581 22.0386C30.2749 21.7739 30.932 21.6415 31.6293 21.6415C32.3802 21.6415 33.1177 21.8268 33.8419 22.1974C34.2396 22.3865 34.5969 22.5954 34.9138 22.8244C35.1737 23.0123 35.4065 23.2136 35.6119 23.4284L38.7096 19.9341C37.905 19.1135 36.8859 18.412 35.6522 17.8296C34.4185 17.2208 32.9568 16.9163 31.2672 16.9163C29.9262 16.9163 28.6255 17.1943 27.365 17.7502C26.1313 18.2796 25.0317 19.1003 24.0662 20.2121C23.1275 21.3239 22.3632 22.7401 21.7732 24.4608C21.21 26.1814 20.9284 28.2198 20.9284 30.5758C20.9284 32.7994 21.1966 34.7054 21.7329 36.2937C22.2693 37.8555 22.98 39.1394 23.8651 40.1453C24.7769 41.1512 25.8095 41.8924 26.9627 42.3689C28.1428 42.8454 29.3496 43.0837 30.5833 43.0837C31.7366 43.0837 32.8227 42.8984 33.8419 42.5278C34.8878 42.1307 35.7863 41.5615 36.5372 40.8203C37.315 40.0791 37.9318 39.1923 38.3877 38.1599C38.8437 37.1275 39.0716 35.9495 39.0716 34.6259C39.0716 33.3024 38.8839 32.1508 38.5084 31.1714C38.133 30.1919 37.5966 29.3845 36.8993 28.7492ZM32.0452 37.1288L32.0457 37.1282C32.4514 36.7112 32.7526 35.9466 32.7526 34.6259C32.7526 33.3789 32.4498 32.781 32.1212 32.5106L32.105 32.4974L32.0895 32.4834C31.6702 32.1055 31.1143 31.8892 30.3419 31.8892C29.8642 31.8892 29.3387 32.0293 28.7542 32.3621L28.749 32.3651L28.7439 32.3679C28.3162 32.6043 27.8767 33.0187 27.4462 33.6736C27.5713 34.4828 27.7413 35.1321 27.9453 35.6357C28.1861 36.2297 28.4485 36.6821 28.7199 37.0149C28.9854 37.3148 29.2459 37.5112 29.4962 37.6324C29.8104 37.7443 30.131 37.7995 30.4626 37.7995C31.0925 37.7995 31.602 37.5853 32.0452 37.1288ZM29.1351 38.4776C28.7328 38.2923 28.3573 38.0011 28.0087 37.604C27.66 37.1805 27.3516 36.6378 27.0834 35.976C26.8152 35.3142 26.6141 34.4803 26.48 33.4744C27.0163 32.5744 27.6198 31.9391 28.2903 31.5685C28.9876 31.1714 29.6715 30.9728 30.3419 30.9728C31.3074 30.9728 32.0986 31.2508 32.7155 31.8067C33.3591 32.3361 33.681 33.2759 33.681 34.6259C33.681 36.0554 33.3591 37.1011 32.7155 37.7628C32.0986 38.3982 31.3477 38.7158 30.4626 38.7158C30.0067 38.7158 29.5642 38.6364 29.1351 38.4776Z" fill="black"/>
</svg>
