<svg width="60" height="60" viewBox="0 0 60 60" fill="none" xmlns="http://www.w3.org/2000/svg">
<circle cx="30" cy="30" r="29" fill="white" stroke="black" stroke-width="2"/>
<path fill-rule="evenodd" clip-rule="evenodd" d="M20.098 37.825L20.5457 37.4704C20.9413 37.1572 21.2265 36.9302 21.4032 36.788C21.4936 36.7154 21.5486 36.6705 21.5749 36.6484C21.5771 36.6466 21.5789 36.645 21.5805 36.6437C21.5715 36.6517 21.5535 36.6679 21.5336 36.6877C21.5249 36.6963 21.5087 36.7127 21.4893 36.7344C21.4766 36.7485 21.4301 36.8006 21.3814 36.8751C21.3592 36.909 21.3051 36.9944 21.2611 37.1148C21.2346 37.1872 21.1038 37.5463 21.2785 37.9692C21.3256 38.0832 21.3843 38.18 21.4501 38.262C21.3964 38.3046 21.3404 38.3489 21.282 38.3952V42.8192H38.816V37.9771H29.3854C29.8957 37.5853 30.3885 37.1916 30.8639 36.7963C32.8391 35.1532 34.5119 33.48 35.882 31.7766C37.5818 29.64 38.4318 27.3294 38.4318 24.8445C38.4318 22.5686 37.7216 20.7223 36.3012 19.3058C34.904 17.8892 32.82 17.1808 30.049 17.1808C28.4423 17.1808 26.9753 17.4943 25.6481 18.1214C24.3441 18.7484 23.2846 19.7238 22.4696 21.0475C21.8413 22.098 21.4477 23.3532 21.2886 24.8132C21.2473 25.1929 21.2218 25.5866 21.2122 25.994H26.9753C26.9753 24.7864 27.2198 23.8575 27.7088 23.2072C28.2211 22.5337 28.9197 22.197 29.8045 22.197C30.6894 22.197 31.353 22.4641 31.7954 22.9982C32.2378 23.5324 32.4591 24.2755 32.4591 25.2276C32.4591 26.4817 32.005 27.7706 31.0969 29.0943C30.1887 30.418 29.071 31.6837 27.7438 32.8913C26.6203 33.9317 25.1339 35.2221 23.2845 36.7624C22.9873 37.0099 22.6808 37.2639 22.3648 37.5243C22.3755 37.5172 22.3761 37.518 22.3667 37.5265C22.3585 37.534 22.3429 37.5473 22.3202 37.5661L21.6105 36.6141C23.8848 34.7394 25.6581 33.2114 26.9381 32.026L26.9419 32.0224L26.9458 32.0189C28.2133 30.8657 29.2688 29.6678 30.1197 28.4275C30.9306 27.2456 31.2751 26.1852 31.2751 25.2276C31.2751 24.4478 31.094 24.0055 30.8826 23.7503C30.7243 23.5591 30.4409 23.3779 29.8045 23.3779C29.2723 23.3779 28.9309 23.5557 28.6541 23.9183C28.3783 24.2867 28.1593 24.926 28.1593 25.994V27.1748H20L20.0285 25.9663C20.0786 23.8447 20.5311 21.9836 21.4527 20.4425L21.4566 20.436L21.4606 20.4296C22.3849 18.9284 23.6099 17.7905 25.1339 17.0577L25.1412 17.0542C26.6413 16.3455 28.2837 16 30.049 16C33.0089 16 35.447 16.758 37.1419 18.4743C38.8128 20.1426 39.6158 22.3035 39.6158 24.8445C39.6158 27.6223 38.6582 30.1869 36.8095 32.5105L36.8056 32.5155C35.6336 33.9726 34.2566 35.3991 32.6791 36.7963H40V44H20.098V37.825Z" fill="black"/>
<path d="M22.318 37.5625L21.3922 38.3047L20.7867 37.2812L21.6188 36.6172L22.318 37.5625Z" fill="black"/>
</svg>
