<svg width="60" height="60" viewBox="0 0 60 60" fill="none" xmlns="http://www.w3.org/2000/svg">
<circle cx="30" cy="30" r="29" fill="white" stroke="black" stroke-width="2"/>
<path fill-rule="evenodd" clip-rule="evenodd" d="M20.3074 25.92L20.353 24.7204C20.4546 22.0442 21.3589 19.8396 23.1781 18.2663C24.9733 16.7138 27.3457 16 30.1588 16C32.0226 16 33.6869 16.3174 35.1094 17.0032C36.5289 17.6766 37.649 18.6239 38.4064 19.8623C39.1727 21.0776 39.5494 22.4373 39.5494 23.9108C39.5494 25.6083 39.115 27.1063 38.1543 28.3094L38.1501 28.3148L38.1457 28.3201C37.7763 28.7718 37.3745 29.1709 36.9403 29.5132C37.5832 29.9462 38.1459 30.4737 38.6211 31.0971C39.5714 32.3441 40 33.8909 40 35.6457C40 37.2423 39.6185 38.703 38.8275 39.9929C38.051 41.2742 36.9115 42.2587 35.4644 42.9586C34.0194 43.6688 32.3416 44 30.4707 44C27.5058 44 24.9986 43.2804 23.0703 41.7254L23.0641 41.7204C21.0951 40.1102 20.1411 37.7321 20.0408 34.7976L20 33.6024H28.1183L28.1444 34.7325C28.1625 35.5162 28.3795 36.0165 28.6916 36.3537C28.9601 36.6243 29.4187 36.8432 30.2627 36.8432C30.9385 36.8432 31.2874 36.6622 31.4926 36.4506L31.4935 36.4498C31.7589 36.1767 31.9302 35.7979 31.9302 35.2023C31.9302 34.3731 31.6752 34.0082 31.3716 33.8058L31.3535 33.7937L31.3358 33.781C30.9502 33.5027 30.1422 33.2543 28.6682 33.2543H26.3838V26.1998H28.6682C29.7267 26.1998 30.4562 26.0247 30.9397 25.7656C31.218 25.6098 31.4449 25.3395 31.4449 24.6272C31.4449 24.0273 31.2816 23.7174 31.0958 23.5345C30.9038 23.3456 30.5957 23.1909 30.0201 23.1909C29.4004 23.1909 29.118 23.3618 28.9592 23.545C28.7111 23.8625 28.5389 24.2845 28.4868 24.8653L28.3922 25.92H20.3074ZM28.0442 22.8192C28.4833 22.2961 29.1419 22.0346 30.0201 22.0346C30.829 22.0346 31.4644 22.262 31.9267 22.7168C32.3889 23.1717 32.6199 23.8085 32.6199 24.6272C32.6199 25.6506 32.2502 26.3669 31.5107 26.7763C30.7943 27.1629 29.8468 27.3562 28.6682 27.3562H27.5589V32.098H28.6682C30.2165 32.098 31.3374 32.3481 32.0306 32.8485C32.747 33.326 33.1053 34.1106 33.1053 35.2023C33.1053 36.0437 32.851 36.726 32.3426 37.2491C31.8573 37.7494 31.164 37.9995 30.2627 37.9995C29.1997 37.9995 28.3909 37.7153 27.8362 37.1467C27.2816 36.5554 26.9927 35.7595 26.9696 34.7588H21.2153C21.229 35.1592 21.2596 35.5447 21.3072 35.9152C21.5811 38.0491 22.4171 39.6877 23.8151 40.8309C25.479 42.1727 27.6976 42.8436 30.4707 42.8436C32.204 42.8436 33.6946 42.5366 34.9425 41.9226C36.2135 41.3085 37.1726 40.4671 37.8197 39.3982C38.4899 38.3066 38.8249 37.0558 38.8249 35.6457C38.8249 34.0765 38.4436 32.7916 37.681 31.7909C37.1895 31.146 36.5828 30.6192 35.8609 30.2104C35.4778 29.9935 35.0625 29.81 34.6146 29.6596C34.5968 29.6536 34.579 29.6477 34.5612 29.6418V29.5054C34.5786 29.4995 34.5961 29.4936 34.6134 29.4876C35.038 29.3402 35.4402 29.1409 35.8201 28.8896C36.3306 28.5519 36.8006 28.1204 37.2304 27.595C37.993 26.6398 38.3743 25.4118 38.3743 23.9108C38.3743 22.6372 38.0507 21.4888 37.4037 20.4654C36.7797 19.442 35.8438 18.6346 34.5958 18.0433C33.371 17.452 31.892 17.1564 30.1588 17.1564C27.5473 17.1564 25.479 17.8159 23.9538 19.1349C22.6796 20.2369 21.9054 21.7276 21.6311 23.6072C21.5771 23.9776 21.5425 24.3631 21.5272 24.7636H27.3162C27.3856 23.9904 27.6282 23.3423 28.0442 22.8192Z" fill="black"/>
</svg>
